<svg width="503" height="367" viewBox="0 0 503 367" fill="none" xmlns="http://www.w3.org/2000/svg">
<rect width="503" height="367" fill="white"/>
<path d="M22.8825 181.302C24.048 181.302 24.9928 180.354 24.9928 179.185C24.9928 178.016 24.048 177.068 22.8825 177.068C21.717 177.068 20.7722 178.016 20.7722 179.185C20.7722 180.354 21.717 181.302 22.8825 181.302Z" fill="white"/>
<path d="M155.962 74.5246H144.231C143.885 74.5246 143.554 74.3869 143.309 74.1416C143.065 73.8964 142.928 73.5638 142.928 73.217C142.928 72.8702 143.065 72.5376 143.309 72.2924C143.554 72.0472 143.885 71.9094 144.231 71.9094H155.962C156.307 71.9102 156.638 72.0483 156.882 72.2935C157.125 72.5386 157.262 72.8707 157.262 73.217C157.262 73.5633 157.125 73.8954 156.882 74.1406C156.638 74.3857 156.307 74.5238 155.962 74.5246Z" fill="white"/>
<path d="M164.108 74.1977C164.468 74.1977 164.76 73.905 164.76 73.5439C164.76 73.1828 164.468 72.8901 164.108 72.8901C163.748 72.8901 163.456 73.1828 163.456 73.5439C163.456 73.905 163.748 74.1977 164.108 74.1977Z" fill="white"/>
<path d="M164.769 135.974L164.905 139.016C180.406 138.319 198.355 139.674 217.458 142.873V139.788C198.326 136.615 180.336 135.275 164.769 135.974Z" fill="#CCCCCC"/>
<path d="M145.495 195.551C145.375 196.715 145.277 197.887 145.201 199.065C145.041 201.382 144.961 203.717 144.961 206.071C144.973 227.984 152.035 249.309 165.097 266.873C178.159 284.438 196.523 297.303 217.458 303.558V108.566C198.232 114.299 181.133 125.624 168.324 141.108C155.514 156.591 147.57 175.538 145.495 195.551Z" fill="#FF4001"/>
<path d="M94.9067 136.602C96.0104 136.602 96.9051 135.705 96.9051 134.598C96.9051 133.491 96.0104 132.593 94.9067 132.593C93.803 132.593 92.9083 133.491 92.9083 134.598C92.9083 135.705 93.803 136.602 94.9067 136.602Z" fill="#CCCCCC"/>
<path d="M90.6474 217.023C92.8277 217.023 94.5952 215.25 94.5952 213.063C94.5952 210.876 92.8277 209.102 90.6474 209.102C88.4672 209.102 86.6997 210.876 86.6997 213.063C86.6997 215.25 88.4672 217.023 90.6474 217.023Z" fill="#CCCCCC"/>
<path d="M164.99 112.21C166.569 112.21 167.849 110.926 167.849 109.342C167.849 107.758 166.569 106.473 164.99 106.473C163.411 106.473 162.131 107.758 162.131 109.342C162.131 110.926 163.411 112.21 164.99 112.21Z" fill="#CCCCCC"/>
<path d="M99.9403 271.287C101.2 271.287 102.221 270.262 102.221 268.998C102.221 267.734 101.2 266.71 99.9403 266.71C98.6805 266.71 97.6591 267.734 97.6591 268.998C97.6591 270.262 98.6805 271.287 99.9403 271.287Z" fill="#CCCCCC"/>
<path d="M146.017 303.329C147.382 303.329 148.488 302.219 148.488 300.85C148.488 299.482 147.382 298.372 146.017 298.372C144.653 298.372 143.547 299.482 143.547 300.85C143.547 302.219 144.653 303.329 146.017 303.329Z" fill="#CCCCCC"/>
<path d="M217.832 51.3167H212.957V46.426H210.341V51.3167H205.464V53.9421H210.341V58.8329H212.957V53.9421H217.832V51.3167Z" fill="#CCCCCC"/>
<path opacity="0.1" d="M182.414 197.525C187.119 197.525 190.933 193.699 190.933 188.979C190.933 184.26 187.119 180.434 182.414 180.434C177.71 180.434 173.896 184.26 173.896 188.979C173.896 193.699 177.71 197.525 182.414 197.525Z" fill="black"/>
<path opacity="0.1" d="M186.674 257.733C191.378 257.733 195.192 253.907 195.192 249.188C195.192 244.468 191.378 240.642 186.674 240.642C181.969 240.642 178.155 244.468 178.155 249.188C178.155 253.907 181.969 257.733 186.674 257.733Z" fill="black"/>
<path d="M149.093 195.612C138.64 188.571 130.854 181.624 125.952 174.964C121.062 168.321 119.318 162.32 120.769 157.127C122.22 151.934 126.819 147.716 134.438 144.59C142.076 141.457 152.327 139.582 164.905 139.016L164.769 135.974C137.835 137.185 121.171 144.405 117.846 156.305C114.522 168.205 125.018 183.062 147.401 198.14C165.654 210.436 190.102 221.791 217.458 230.784V227.58C190.747 218.725 166.913 207.616 149.093 195.612Z" fill="#CCCCCC"/>
<path opacity="0.1" d="M149.092 198.048C147.856 197.215 146.658 196.382 145.495 195.551C145.375 196.715 145.277 197.887 145.201 199.065C145.921 199.569 146.654 200.073 147.401 200.575C165.654 212.872 190.102 224.227 217.458 233.22V230.015C190.748 221.16 166.914 210.052 149.092 198.048Z" fill="black"/>
<path d="M262.134 149.007C250.196 145.65 238.364 142.916 226.884 140.812V143.906C238.098 145.981 249.653 148.66 261.315 151.939C298.443 162.378 332.039 177.593 353.489 193.68L355.306 191.241C333.568 174.938 299.608 159.544 262.134 149.007Z" fill="#CCCCCC"/>
<path d="M351.262 206.071C351.253 190.756 347.798 175.641 341.156 161.852C334.513 148.064 324.854 135.957 312.898 126.434C300.942 116.911 286.998 110.219 272.105 106.855C257.212 103.491 241.754 103.543 226.884 107.006V305.129C249.242 310.35 272.704 307.807 293.435 297.917C314.166 288.026 330.939 271.373 341.013 250.68C341.536 249.61 342.039 248.53 342.521 247.44C348.303 234.421 351.281 220.324 351.262 206.071L351.262 206.071Z" fill="#FF4001"/>
<path d="M252.573 86.0353C253.215 86.0353 253.735 85.5136 253.735 84.87C253.735 84.2264 253.215 83.7047 252.573 83.7047C251.932 83.7047 251.412 84.2264 251.412 84.87C251.412 85.5136 251.932 86.0353 252.573 86.0353Z" fill="#F2F2F2"/>
<path d="M331.175 94.5014C332.629 94.5014 333.806 93.3196 333.806 91.8619C333.806 90.4041 332.629 89.2224 331.175 89.2224C329.722 89.2224 328.544 90.4041 328.544 91.8619C328.544 93.3196 329.722 94.5014 331.175 94.5014Z" fill="#CCCCCC"/>
<path d="M424.491 205.695C426.85 205.695 428.763 203.776 428.763 201.41C428.763 199.043 426.85 197.124 424.491 197.124C422.132 197.124 420.219 199.043 420.219 201.41C420.219 203.776 422.132 205.695 424.491 205.695Z" fill="#CCCCCC"/>
<path d="M391.087 134.802C392.1 134.802 392.92 133.979 392.92 132.963C392.92 131.948 392.1 131.125 391.087 131.125C390.075 131.125 389.255 131.948 389.255 132.963C389.255 133.979 390.075 134.802 391.087 134.802Z" fill="#CCCCCC"/>
<path d="M384.673 194.559C385.685 194.559 386.505 193.735 386.505 192.72C386.505 191.704 385.685 190.881 384.673 190.881C383.66 190.881 382.84 191.704 382.84 192.72C382.84 193.735 383.66 194.559 384.673 194.559Z" fill="#CCCCCC"/>
<path d="M334.477 315.945H331.415V312.875H329.773V315.945H326.712V317.593H329.773V320.664H331.415V317.593H334.477V315.945Z" fill="#CCCCCC"/>
<path d="M405.13 300.227H402.842V297.932H401.612V300.227H399.324V301.46H401.612V303.755H402.842V301.46H405.13V300.227Z" fill="#CCCCCC"/>
<path opacity="0.1" d="M251.412 134.986C256.116 134.986 259.93 131.16 259.93 126.44C259.93 121.721 256.116 117.895 251.412 117.895C246.707 117.895 242.893 121.721 242.893 126.44C242.893 131.16 246.707 134.986 251.412 134.986Z" fill="black"/>
<path opacity="0.1" d="M251.412 210.732C256.116 210.732 259.93 206.906 259.93 202.186C259.93 197.467 256.116 193.641 251.412 193.641C246.707 193.641 242.893 197.467 242.893 202.186C242.893 206.906 246.707 210.732 251.412 210.732Z" fill="black"/>
<path opacity="0.1" d="M297.102 164.896C301.806 164.896 305.62 161.07 305.62 156.35C305.62 151.631 301.806 147.805 297.102 147.805C292.397 147.805 288.583 151.631 288.583 156.35C288.583 161.07 292.397 164.896 297.102 164.896Z" fill="black"/>
<path opacity="0.1" d="M325.367 222.774C330.072 222.774 333.886 218.948 333.886 214.228C333.886 209.508 330.072 205.682 325.367 205.682C320.663 205.682 316.849 209.508 316.849 214.228C316.849 218.948 320.663 222.774 325.367 222.774Z" fill="black"/>
<path d="M374.441 210.351C370.441 204.193 364.004 197.764 355.306 191.241L353.489 193.68C370.39 206.355 378.262 218.471 375.657 227.796C374.207 232.989 369.608 237.206 361.988 240.332C354.35 243.465 344.099 245.341 331.521 245.906C328.849 246.026 326.107 246.086 323.295 246.086C298.685 246.086 269.011 241.514 238.672 232.984C234.694 231.865 230.764 230.695 226.884 229.474V232.662C230.498 233.788 234.154 234.873 237.852 235.915C268.456 244.521 298.417 249.131 323.31 249.13C326.16 249.13 328.947 249.07 331.657 248.948C358.591 247.737 375.255 240.517 378.58 228.617C380.122 223.098 378.73 216.952 374.441 210.351Z" fill="#CCCCCC"/>
<path opacity="0.1" d="M331.522 248.341C328.85 248.461 326.108 248.521 323.294 248.521C298.686 248.521 269.009 243.951 238.671 235.419C234.693 234.301 230.764 233.131 226.884 231.909V235.098C230.497 236.224 234.153 237.309 237.852 238.351C268.457 246.956 298.416 251.566 323.31 251.566C326.159 251.566 328.949 251.505 331.659 251.383C334.933 251.237 338.051 251.002 341.013 250.68C341.536 249.61 342.039 248.53 342.521 247.44C339.08 247.864 335.413 248.165 331.522 248.341Z" fill="black"/>
<path d="M297.068 131.842C303.202 131.842 308.175 126.853 308.175 120.699C308.175 114.546 303.202 109.557 297.068 109.557C290.934 109.557 285.961 114.546 285.961 120.699C285.961 126.853 290.934 131.842 297.068 131.842Z" fill="white"/>
<path d="M297.102 104.299C292.891 104.299 288.853 105.977 285.876 108.964C282.899 111.951 281.226 116.002 281.226 120.225C281.226 129.021 297.102 157.904 297.102 157.904C297.102 157.904 312.977 129.021 312.977 120.225C312.977 116.002 311.304 111.951 308.327 108.964C305.35 105.977 301.312 104.299 297.102 104.299ZM297.102 127.994C295.647 127.994 294.224 127.561 293.014 126.75C291.805 125.939 290.862 124.787 290.305 123.438C289.748 122.09 289.602 120.606 289.886 119.174C290.17 117.742 290.871 116.427 291.9 115.395C292.928 114.363 294.239 113.66 295.666 113.375C297.093 113.091 298.573 113.237 299.917 113.795C301.261 114.354 302.41 115.3 303.219 116.514C304.027 117.727 304.458 119.154 304.458 120.614C304.458 122.571 303.683 124.448 302.304 125.833C300.924 127.217 299.053 127.994 297.102 127.994Z" fill="#3F3D56"/>
<path d="M251.252 172.232C257.387 172.232 262.359 167.244 262.359 161.09C262.359 154.936 257.387 149.948 251.252 149.948C245.118 149.948 240.146 154.936 240.146 161.09C240.146 167.244 245.118 172.232 251.252 172.232Z" fill="white"/>
<path d="M251.286 144.69C247.076 144.69 243.038 146.368 240.061 149.355C237.084 152.342 235.411 156.392 235.411 160.616C235.411 169.412 251.286 198.295 251.286 198.295C251.286 198.295 267.161 169.412 267.161 160.616C267.161 156.392 265.489 152.342 262.512 149.355C259.534 146.368 255.497 144.69 251.286 144.69ZM251.286 168.385C249.831 168.385 248.409 167.952 247.199 167.141C245.989 166.33 245.046 165.178 244.489 163.829C243.933 162.481 243.787 160.997 244.071 159.565C244.355 158.133 245.055 156.818 246.084 155.786C247.113 154.754 248.424 154.051 249.851 153.766C251.278 153.481 252.757 153.628 254.102 154.186C255.446 154.745 256.595 155.691 257.403 156.904C258.212 158.118 258.643 159.545 258.643 161.005C258.643 162.962 257.868 164.839 256.488 166.223C255.109 167.608 253.237 168.385 251.286 168.385Z" fill="#3F3D56"/>
<path d="M251.252 100.504C257.387 100.504 262.359 95.5152 262.359 89.3615C262.359 83.2078 257.387 78.2192 251.252 78.2192C245.118 78.2192 240.146 83.2078 240.146 89.3615C240.146 95.5152 245.118 100.504 251.252 100.504Z" fill="white"/>
<path d="M251.286 72.9616C247.076 72.9616 243.038 74.6395 240.061 77.6263C237.084 80.613 235.411 84.6638 235.411 88.8877C235.411 97.6834 251.286 126.566 251.286 126.566C251.286 126.566 267.161 97.6834 267.161 88.8877C267.161 84.6638 265.489 80.613 262.512 77.6263C259.534 74.6395 255.497 72.9616 251.286 72.9616ZM251.286 96.6565C249.831 96.6565 248.409 96.2236 247.199 95.4127C245.989 94.6017 245.046 93.449 244.489 92.1005C243.933 90.7519 243.787 89.2679 244.071 87.8363C244.355 86.4046 245.055 85.0895 246.084 84.0574C247.113 83.0252 248.424 82.3223 249.851 82.0375C251.278 81.7527 252.757 81.8989 254.102 82.4575C255.446 83.0161 256.595 83.9621 257.403 85.1758C258.212 86.3895 258.643 87.8164 258.643 89.2761C258.643 90.2453 258.453 91.205 258.083 92.1005C257.713 92.9959 257.171 93.8095 256.488 94.4948C255.805 95.1802 254.994 95.7238 254.102 96.0947C253.209 96.4656 252.252 96.6565 251.286 96.6565Z" fill="#CCCCCC"/>
<path d="M325.529 186.857C331.663 186.857 336.636 181.868 336.636 175.714C336.636 169.561 331.663 164.572 325.529 164.572C319.395 164.572 314.422 169.561 314.422 175.714C314.422 181.868 319.395 186.857 325.529 186.857Z" fill="white"/>
<path d="M325.563 159.315C321.352 159.315 317.314 160.993 314.337 163.979C311.36 166.966 309.688 171.017 309.688 175.241C309.688 184.036 325.563 212.919 325.563 212.919C325.563 212.919 341.438 184.036 341.438 175.241C341.438 171.017 339.765 166.966 336.788 163.979C333.811 160.993 329.773 159.315 325.563 159.315ZM325.563 183.009C324.108 183.009 322.685 182.577 321.475 181.766C320.266 180.955 319.323 179.802 318.766 178.453C318.209 177.105 318.063 175.621 318.347 174.189C318.631 172.758 319.332 171.443 320.361 170.41C321.39 169.378 322.7 168.675 324.127 168.39C325.555 168.106 327.034 168.252 328.378 168.81C329.722 169.369 330.871 170.315 331.68 171.529C332.488 172.742 332.92 174.169 332.92 175.629C332.92 177.586 332.144 179.464 330.765 180.848C329.385 182.232 327.514 183.009 325.563 183.009Z" fill="#CCCCCC"/>
<path d="M182.529 161.787C188.663 161.787 193.636 156.798 193.636 150.644C193.636 144.49 188.663 139.502 182.529 139.502C176.395 139.502 171.423 144.49 171.423 150.644C171.423 156.798 176.395 161.787 182.529 161.787Z" fill="white"/>
<path d="M182.563 134.244C178.353 134.244 174.315 135.922 171.338 138.909C168.36 141.896 166.688 145.947 166.688 150.17C166.688 158.966 182.563 187.849 182.563 187.849C182.563 187.849 198.438 158.966 198.438 150.17C198.438 145.947 196.766 141.896 193.788 138.909C190.811 135.922 186.773 134.244 182.563 134.244ZM182.563 157.939C181.108 157.939 179.686 157.506 178.476 156.695C177.266 155.884 176.323 154.732 175.766 153.383C175.209 152.035 175.064 150.551 175.348 149.119C175.631 147.687 176.332 146.372 177.361 145.34C178.39 144.308 179.701 143.605 181.128 143.32C182.555 143.035 184.034 143.182 185.378 143.74C186.723 144.299 187.872 145.245 188.68 146.458C189.488 147.672 189.92 149.099 189.92 150.559C189.92 152.516 189.145 154.393 187.765 155.778C186.385 157.162 184.514 157.939 182.563 157.939Z" fill="#CCCCCC"/>
<path d="M186.694 222.373C192.828 222.373 197.801 217.384 197.801 211.231C197.801 205.077 192.828 200.088 186.694 200.088C180.56 200.088 175.588 205.077 175.588 211.231C175.588 217.384 180.56 222.373 186.694 222.373Z" fill="white"/>
<path d="M186.728 194.831C182.518 194.831 178.48 196.509 175.503 199.495C172.525 202.482 170.853 206.533 170.853 210.757C170.853 219.552 186.728 248.435 186.728 248.435C186.728 248.435 202.603 219.552 202.603 210.757C202.603 206.533 200.931 202.482 197.954 199.495C194.976 196.509 190.938 194.831 186.728 194.831ZM186.728 218.526C185.273 218.526 183.851 218.093 182.641 217.282C181.431 216.471 180.488 215.318 179.931 213.97C179.374 212.621 179.229 211.137 179.513 209.705C179.796 208.274 180.497 206.959 181.526 205.926C182.555 204.894 183.866 204.191 185.293 203.907C186.72 203.622 188.199 203.768 189.543 204.327C190.888 204.885 192.037 205.831 192.845 207.045C193.653 208.259 194.085 209.685 194.085 211.145C194.085 213.103 193.31 214.98 191.93 216.364C190.55 217.748 188.679 218.526 186.728 218.526Z" fill="#3F3D56"/>
</svg>
