<svg width="102" height="47" viewBox="0 0 102 47" fill="none" xmlns="http://www.w3.org/2000/svg">
<path fill-rule="evenodd" clip-rule="evenodd" d="M6.87638 25.8268C6.87638 28.7777 8.66943 30.2524 12.2573 30.2524H12.313C15.7332 30.2524 17.4423 28.8587 17.4423 26.0697V22.5887C15.8437 22.3728 14.4781 22.2562 13.3444 22.2377C9.05096 22.2377 6.89465 23.4345 6.87638 25.8268ZM0 26.6633C0 26.1061 0.0559779 25.5347 0.169111 24.9499C0.280771 24.3654 0.575683 23.6322 1.05385 22.7505C1.53172 21.8694 2.18312 21.0958 3.00775 20.4299C3.83239 19.7647 5.05093 19.1933 6.6622 18.7163C8.27376 18.2402 10.1761 18.0013 12.3689 18.0013C13.9298 18.0013 15.603 18.1273 17.3863 18.379C17.3863 14.8709 15.3696 13.1169 11.3375 13.1169C8.11731 13.1169 5.31933 13.5851 2.94323 14.5202V9.06934C5.58095 8.13416 8.50857 7.66601 11.7276 7.66601C15.803 7.66601 18.921 8.66916 21.0802 10.6749C23.2395 12.6812 24.3186 15.582 24.3186 19.3776V26.8254C24.3186 29.3619 23.3361 31.5436 21.3725 33.369C19.4085 35.1953 16.3884 36.108 12.313 36.108C8.0964 36.108 4.98965 35.1905 2.99361 33.3557C0.997872 31.5206 0 29.2905 0 26.6633ZM34.9945 30.6212C36.5771 30.8373 37.9837 30.9455 39.2128 30.9455C41.4294 30.9455 43.1198 30.32 44.2835 29.068C45.4468 27.8168 46.0296 25.6068 46.0296 22.4371C46.0296 19.196 45.592 16.8556 44.7166 15.4145C43.8406 13.9743 42.3136 13.2537 40.1347 13.2537C36.7082 13.2537 34.9945 14.2444 34.9945 16.225V30.6212ZM28.122 45.7739V16.8462C28.122 14.3071 29.104 12.1241 31.0695 10.2961C33.0349 8.46903 36.056 7.55491 40.1347 7.55491C41.0805 7.55491 42.0218 7.62693 42.9579 7.7707C43.8951 7.91532 44.9972 8.29338 46.2681 8.90517C47.538 9.51781 48.6275 10.3098 49.5367 11.282C50.4448 12.2545 51.2325 13.6819 51.9003 15.5631C52.5681 17.4451 52.9017 19.6193 52.9017 22.0861C52.9017 26.6049 51.7619 30.0755 49.4808 32.4979C47.1985 34.9205 43.9354 36.1313 39.6877 36.1313C38.0856 36.1313 36.5215 35.9679 34.9945 35.6396V45.7739H28.122ZM54.1695 13.8401V8.15871H58.9751V0H65.8486V8.15871H72.6102V13.8401H65.8486V27.4109C65.8486 28.5958 66.1042 29.3947 66.6172 29.8073C67.1299 30.2206 68.0378 30.4266 69.3413 30.4266C70.5705 30.4266 71.6604 30.2294 72.6102 29.8343V35.3003C71.269 35.8387 69.8066 36.108 68.2237 36.108H68.0838C65.2522 36.108 63.0267 35.3003 61.4061 33.6846C59.7855 32.069 58.9751 29.8437 58.9751 27.0071V13.8401H54.1695ZM75.1458 7.99931H82.4395L88.8384 27.1862L95.1257 7.99931H102L91.5213 36.2435C89.9939 40.2534 88.3354 42.9557 86.547 44.3498C84.7586 45.7433 82.9045 46.4405 80.9863 46.4405C79.5708 46.4405 78.1261 46.1848 76.6549 45.6745V40.0755C77.7544 40.5247 78.8344 40.7485 79.8965 40.7485C81.8705 40.7485 83.7062 38.5236 85.4013 34.0747L75.1458 7.99931Z" fill="#FF4001"/>
</svg>
