<svg width="14" height="14" viewBox="0 0 14 14" fill="none" xmlns="http://www.w3.org/2000/svg">
<circle cx="7" cy="7" r="6.5" stroke="#333333"/>
<path d="M6.23295 9.54545H7.25568V9.49432C7.27273 8.4375 7.54545 7.97727 8.29545 7.50852C9.04545 7.05256 9.48864 6.39631 9.48864 5.45455C9.48864 4.125 8.51705 3.15341 7.01705 3.15341C5.63636 3.15341 4.54119 4.00568 4.47727 5.45455H5.55114C5.61506 4.44886 6.31818 4.03977 7.01705 4.03977C7.81818 4.03977 8.46591 4.56818 8.46591 5.40341C8.46591 6.08097 8.07812 6.56676 7.57955 6.86932C6.74432 7.37642 6.24574 7.87074 6.23295 9.49432V9.54545ZM6.77841 12.0682C7.20028 12.0682 7.54545 11.723 7.54545 11.3011C7.54545 10.8793 7.20028 10.5341 6.77841 10.5341C6.35653 10.5341 6.01136 10.8793 6.01136 11.3011C6.01136 11.723 6.35653 12.0682 6.77841 12.0682Z" fill="#333333"/>
</svg>
